<svg xmlns="http://www.w3.org/2000/svg" xmlns:xlink="http://www.w3.org/1999/xlink" viewBox="0 0 56.15 123.42"><defs><style>.cls-1{opacity:0.5;}.cls-2{fill:url(#linear-gradient);}.cls-3{fill:url(#linear-gradient-2);}.cls-4{fill:url(#linear-gradient-3);}.cls-5{fill:#364c9f;}</style><linearGradient id="linear-gradient" x1="28.39" y1="107.05" x2="26.59" y2="-14.99" gradientUnits="userSpaceOnUse"><stop offset="0" stop-color="#fff"/><stop offset="1"/></linearGradient><linearGradient id="linear-gradient-2" x1="27.93" y1="107.06" x2="26.12" y2="-14.98" xlink:href="#linear-gradient"/><linearGradient id="linear-gradient-3" x1="28.45" y1="107.05" x2="26.65" y2="-15" xlink:href="#linear-gradient"/></defs><title>icon6</title><g id="Слой_2" data-name="Слой 2"><g id="Layer_2" data-name="Layer 2"><path d="M34.36,59V55.15c0-.74-1.07-1.35-2.39-1.35H22.72c-1.31,0-2.38.61-2.38,1.35V59c0,.74,1.07,1.35,2.38,1.35h1v1.12c0,.31.45.57,1,.57H30c.56,0,1-.26,1-.57V60.35h1C33.29,60.35,34.36,59.74,34.36,59Z"/><path d="M39.67,18.34a18.86,18.86,0,0,0-12.13-4.21c-9.48,0-17.18,6.45-17.18,14.39,0,5,3,9.51,8,12.17l.35.19v9.73a2.89,2.89,0,0,0,3.11,2.61h11A2.89,2.89,0,0,0,36,50.61V41.05l.37-.19c5.23-2.63,8.35-7.25,8.35-12.34A13.28,13.28,0,0,0,39.67,18.34ZM34.4,38.13l-.49.25a2.9,2.9,0,0,0-1.72,2.54V50H22.54V40.76a2.88,2.88,0,0,0-1.65-2.51L20.41,38c-3.91-2.08-6.25-5.62-6.25-9.48a10.3,10.3,0,0,1,3.92-7.92,14.7,14.7,0,0,1,9.46-3.29A14.66,14.66,0,0,1,37,20.6a10.3,10.3,0,0,1,3.92,7.92C40.9,32.49,38.47,36.08,34.4,38.13ZM46.54,27.4v2.34l9.11,0V27.38Zm-37.43.09L0,27.52v2.34l9.11,0Zm39.26-16L46.55,9.84l-6.43,5.87L42,17.36ZM7.29,45.75,9.11,47.4l6.42-5.88-1.82-1.65Zm8.18-30L9,9.93,7.2,11.59l6.46,5.84ZM40.19,41.46l6.46,5.85,1.81-1.66L42,39.8ZM29.05,3.29H26.48l0,8.29h2.57Z"/><g class="cls-1"><path class="cls-2" d="M34.85,67.48v3.87c0,.74-1.07,1.35-2.39,1.35H23.21c-1.31,0-2.38-.61-2.38-1.35V67.48c0-.74,1.07-1.35,2.38-1.35h1V65c0-.31.45-.57,1-.57h5.31c.56,0,1,.26,1,.57v1.13h1C33.78,66.13,34.85,66.74,34.85,67.48Z"/><path class="cls-3" d="M21.31,98.66l3.08-1.6a4.21,4.21,0,0,0,3.44,2.2,4.08,4.08,0,0,0,3.37-2.18l3.1,1.56c-.09.17-2.07,4.09-6.47,4.09S21.4,98.83,21.31,98.66Z"/><path class="cls-4" d="M40.16,108.3A18.82,18.82,0,0,1,28,112.53c-9.48,0-17.18-6.48-17.18-14.45,0-5,3-9.54,8-12.22l.35-.19V75.9a2.9,2.9,0,0,1,3.11-2.61h11a2.89,2.89,0,0,1,3.11,2.61v9.6l.37.19C42.08,88.33,45.2,93,45.2,98.08A13.34,13.34,0,0,1,40.16,108.3ZM34.89,88.44l-.49-.25a2.93,2.93,0,0,1-1.72-2.56V76.49H23V85.8a2.88,2.88,0,0,1-1.65,2.51l-.48.26c-3.91,2.08-6.25,5.64-6.25,9.51a10.36,10.36,0,0,0,3.92,8,14.65,14.65,0,0,0,9.46,3.3A14.66,14.66,0,0,0,37.47,106a10.38,10.38,0,0,0,3.92-8C41.39,94.1,39,90.49,34.89,88.44ZM47,99.21V96.86l9.11,0v2.35ZM9.6,99.12l-9.11,0V96.74l9.11,0Zm39.26,16.06L47,116.84l-6.43-5.9,1.83-1.66ZM7.78,80.79,9.6,79.13,16,85,14.2,86.69ZM16,110.88l-6.45,5.87-1.82-1.67,6.45-5.87ZM40.68,85.09l6.46-5.87L49,80.89l-6.46,5.87ZM29.54,123.42H27l0-8.33h2.57Z"/></g><polygon class="cls-5" points="20.02 23.51 29.34 35.48 55.5 4.43 48.41 0 29.34 23.51 24.46 17.74 20.02 23.51"/></g></g></svg>