<svg xmlns="http://www.w3.org/2000/svg" xmlns:xlink="http://www.w3.org/1999/xlink" viewBox="0 0 54.88 60.57"><defs><style>.cls-1{fill:#f9fffc;}.cls-2{fill:url(#linear-gradient);}.cls-3{fill:#364c9f;}</style><linearGradient id="linear-gradient" x1="27.84" y1="59.46" x2="27.84" y2="37.03" gradientUnits="userSpaceOnUse"><stop offset="0" stop-color="#fff"/><stop offset="1"/></linearGradient></defs><title>icon4</title><g id="Слой_2" data-name="Слой 2"><g id="Layer_2" data-name="Layer 2"><polyline points="4.41 33.81 0 43.98 53.91 43.98 50.35 32.41"/><path d="M53.58,26.21c0,5.89-5.33,10.67-11.91,10.67H12.57C6,36.88.66,32.1.66,26.21V10.66C.66,4.77,6,0,12.57,0h29.1c6.58,0,11.91,4.77,11.91,10.66Z"/><path class="cls-1" d="M51,25.45c0,5.32-4.81,9.62-10.74,9.62H14c-5.93,0-10.74-4.3-10.74-9.62v-14C3.25,6.11,8.06,1.8,14,1.8H40.25C46.18,1.8,51,6.11,51,11.42Z"/><path d="M54.07,44a1.86,1.86,0,0,1-1.7,2H1.7A1.86,1.86,0,0,1,0,44H0a1.87,1.87,0,0,1,1.7-2H52.37a1.87,1.87,0,0,1,1.7,2Z"/><rect class="cls-1" x="23.31" y="41.08" width="6.95" height="1.79"/><path class="cls-2" d="M54.88,49a1.87,1.87,0,0,0-1.7-2H2.5A1.88,1.88,0,0,0,.8,49a2.14,2.14,0,0,0,.37,1.21H.8l4.41,9.09,1,1.24H51.15l3.56-10.33h-.19A2.21,2.21,0,0,0,54.88,49Z"/><rect class="cls-1" x="24.42" y="48.56" width="6.95" height="1.79"/><path class="cls-3" d="M44.07,10.91a1.57,1.57,0,1,0-3.14,0,1.6,1.6,0,0,0,.29.92L39.48,16.4l-6.51-4a1.57,1.57,0,1,0-1.93,0s0,0,0,0l-2.56,6.71L19.7,11.7a1.13,1.13,0,0,0-.21-.12l0,0a1.55,1.55,0,0,0,.4-1,1.57,1.57,0,1,0-2.24,1.41s0,0,0,0l-4.9,12.29a1.28,1.28,0,0,0-.06.33,1.56,1.56,0,0,0-1,1.47,1.57,1.57,0,1,0,3.14,0,1.63,1.63,0,0,0-.12-.59,1.11,1.11,0,0,0,.23-.36l4.32-10.82,8.58,7.32A1.12,1.12,0,0,0,28,22a1.57,1.57,0,1,0,2.14-.59.88.88,0,0,0,0-.16l2.42-6.37L39.24,19c.38.24,1,0,1.3-.55a1.47,1.47,0,0,0,.19-.5l2.08-5.47A1.56,1.56,0,0,0,44.07,10.91Z"/></g></g></svg>