<svg xmlns="http://www.w3.org/2000/svg" viewBox="0 0 189.12 188.46">
    <path d="M90,188.46A89.94,89.94,0,0,1,83.75,8.8,4.49,4.49,0,0,1,87.6,16,76.07,76.07,0,0,0,71.38,63.24a77,77,0,0,0,76.9,76.91,78.37,78.37,0,0,0,13.65-1.23,4.49,4.49,0,0,1,4.61,6.77A89.47,89.47,0,0,1,90,188.46ZM74.67,19A81,81,0,1,0,153.3,149c-1.68.1-3.35.15-5,.15A86,86,0,0,1,62.4,63.24,84.94,84.94,0,0,1,74.67,19Z"/>
    <path d="M165.57,63.33A4.49,4.49,0,0,1,161.22,60a21.58,21.58,0,0,0-15.47-15.53,4.43,4.43,0,0,1-2.53-1.26l-.07-.07a4.49,4.49,0,0,1,2.13-7.54,21.6,21.6,0,0,0,15.89-15.83,4.49,4.49,0,0,1,8.72,0A21.6,21.6,0,0,0,185.7,35.54a4.49,4.49,0,0,1,0,8.72,21.56,21.56,0,0,0-15.78,15.68,4.48,4.48,0,0,1-4.34,3.39ZM157.3,39.91a30.85,30.85,0,0,1,8.25,8.17,30.45,30.45,0,0,1,8.19-8.18,30.45,30.45,0,0,1-8.21-8.21,31.8,31.8,0,0,1-3.71,4.5A30.82,30.82,0,0,1,157.3,39.91Z"/>
    <path d="M133,25.48a4.49,4.49,0,0,1-4.35-3.38A6.79,6.79,0,0,0,126.83,19a6.89,6.89,0,0,0-3-1.76A4.37,4.37,0,0,1,121.47,16a4.51,4.51,0,0,1,2.09-7.57,6.79,6.79,0,0,0,5-5A4.48,4.48,0,0,1,132.94,0h0a4.48,4.48,0,0,1,4.36,3.42,6.86,6.86,0,0,0,5,5,4.48,4.48,0,0,1,0,8.71,6.82,6.82,0,0,0-5,4.95,4.48,4.48,0,0,1-4.34,3.4Z"/>
</svg>