<svg xmlns="http://www.w3.org/2000/svg" viewBox="0 0 228 228">
    <rect x="204" y="94.5" width="9" height="39" rx="4.5" transform="translate(94.5 322.5) rotate(-90)"/>
    <path d="M114,228h0a4.5,4.5,0,0,1-4.5-4.5v-30A4.51,4.51,0,0,1,114,189h0a4.5,4.5,0,0,1,4.5,4.5v30A4.49,4.49,0,0,1,114,228Z"/>
    <path d="M114,171.44A57.44,57.44,0,1,1,171.44,114,57.51,57.51,0,0,1,114,171.44Zm0-106.06A48.63,48.63,0,1,0,162.63,114,48.68,48.68,0,0,0,114,65.38Z"/>
    <rect x="15" y="94.5" width="9" height="39" rx="4.5" transform="translate(-94.5 133.5) rotate(-90)"/><path class="cls-1" d="M114,39h0a4.5,4.5,0,0,1-4.5-4.5V4.5A4.5,4.5,0,0,1,114,0h0a4.49,4.49,0,0,1,4.5,4.5v30A4.49,4.49,0,0,1,114,39Z"/>
    <path d="M61,61h0a4.5,4.5,0,0,1-6.37,0L33.39,39.75a4.49,4.49,0,0,1,0-6.36h0a4.49,4.49,0,0,1,6.36,0L61,54.6A4.5,4.5,0,0,1,61,61Z"/>
    <path d="M194.61,194.61h0a4.49,4.49,0,0,1-6.36,0L167,173.4a4.49,4.49,0,0,1,0-6.36h0a4.49,4.49,0,0,1,6.36,0l21.21,21.21A4.49,4.49,0,0,1,194.61,194.61Z"/>
    <path d="M61,167h0a4.49,4.49,0,0,1,0,6.36L39.75,194.61a4.49,4.49,0,0,1-6.36,0h0a4.49,4.49,0,0,1,0-6.36L54.6,167A4.5,4.5,0,0,1,61,167Z"/>
    <path d="M194.61,33.39h0a4.49,4.49,0,0,1,0,6.36L173.4,61A4.49,4.49,0,0,1,167,61h0a4.5,4.5,0,0,1,0-6.37l21.21-21.21A4.49,4.49,0,0,1,194.61,33.39Z"/>
</svg>