<svg xmlns="http://www.w3.org/2000/svg" xmlns:xlink="http://www.w3.org/1999/xlink" version="1.1" id="Layer_1" x="0px" y="0px" viewBox="0 0 69.6 69.6" enable-background="new 0 0 69.6 69.6" xml:space="preserve">
<g>
	<circle fill="#1BA2FC" cx="34.8" cy="34.8" r="34.8"/>
</g>
    <g>
	<path fill="#FFFFFF" d="M35.3,12L35.3,12c1.6,0,2.9,1.3,2.9,2.9v11c0,1.6-1.3,2.9-2.9,2.9l0,0c-1.6,0-2.9-1.3-2.9-2.9V15   C32.4,13.3,33.7,12,35.3,12L35.3,12z"/>
        <path fill="#FFFFFF" d="M13.1,28.2L13.1,28.2c0.5-1.6,2.2-2.4,3.7-1.9l10.4,3.4c1.6,0.5,2.4,2.2,1.9,3.7l0,0   c-0.5,1.6-2.2,2.4-3.7,1.9L15,31.9C13.4,31.4,12.6,29.8,13.1,28.2L13.1,28.2z"/>
        <path fill="#FFFFFF" d="M21.5,54.4L21.5,54.4c-1.3-1-1.6-2.8-0.6-4.1l6.4-8.9c1-1.3,2.8-1.6,4.1-0.6l0,0c1.3,1,1.6,2.8,0.6,4.1   l-6.4,8.9C24.8,55.1,22.8,55.4,21.5,54.4L21.5,54.4z"/>
        <path fill="#FFFFFF" d="M49.1,54.4L49.1,54.4c-1.3,1-3.1,0.6-4.1-0.6L38.6,45c-1-1.3-0.6-3.1,0.6-4.1l0,0c1.3-1,3.1-0.6,4.1,0.6   l6.4,8.9C50.7,51.6,50.4,53.5,49.1,54.4L49.1,54.4z"/>
        <path fill="#FFFFFF" d="M57.6,28.2L57.6,28.2c0.5,1.6-0.4,3.3-1.9,3.7l-10.4,3.4c-1.6,0.5-3.3-0.4-3.7-1.9l0,0   c-0.5-1.6,0.4-3.3,1.9-3.7l10.4-3.4C55.5,25.9,57.1,26.7,57.6,28.2L57.6,28.2z"/>
</g>
</svg>